<svg xmlns="http://www.w3.org/2000/svg" width="577.31" height="226.22" viewBox="0 0 577.31 226.22"><path d="M.1,16,.25,53.1c0,9.26-2.2,22.77,6.1,29.36,7.19,5.7,15.19,1.44,18.36-6.15,2-4.82,3.09-10.11,4.5-15.13,1.34-4.81,2-11.44,6.11-14.75L28.49,43.6q.06,9.21.12,18.4c0,4.88,0,10,2.08,14.55,4.13,8.86,15,10.26,23.65,8.23,10.06-2.35,12-12.42,12.92-21.29a261.53,261.53,0,0,0,.67-41.13c-.31-5.12-8.32-5.15-8,0a264.36,264.36,0,0,1,.19,29.39c-.23,4.56-.49,9.15-1.06,13.69-.4,3.23-.84,7.54-3.34,9.92s-8.37,2.57-11.79,2C39.72,76.58,37.71,74,37,70c-1.52-8.38-.45-17.86-.5-26.35,0-3.73-4.24-4.92-6.83-2.82C23.93,45.41,22.85,54.2,21,60.87c-1.07,3.83-1.9,7.86-3.31,11.59-.58,1.53-1.53,4.26-3.42,4.66-2.69.58-4.33-2.23-5.08-4.22-1.58-4.21-.88-9.53-.9-14l0-13.65L8.1,16c0-5.14-8-5.15-8,0Z"/><path d="M90.49,58.92c6.17.41,13,.11,18.15-3.62,5.37-3.85,7.18-10.47,6.49-16.82C113.78,26,103.36,15,90.72,13.72,77.85,12.4,64.92,22,62.29,34.66c-1.55,7.47.88,14.92,2.85,22.06,1.92,7,3.06,15.56,8.34,20.94,5.76,5.87,15.36,8.78,23.26,10.1a62.57,62.57,0,0,0,26.71-1.31c5-1.33,2.86-9-2.13-7.72a53.63,53.63,0,0,1-21.61,1.45c-6.58-.94-15-3-20-7.6C74.88,68.21,74,58.83,72.37,52.85c-1.89-6.9-4.22-14.14-.64-20.91a18.45,18.45,0,0,1,30-4.16c4.11,4.34,7.07,11.39,4.92,17.33-2.35,6.46-10.48,6.19-16.17,5.81-5.14-.33-5.12,7.67,0,8Z"/><path d="M125.45,13.94c0,21.06-.71,42.24-.06,63.29.23,7.44,4.63,11.5,11.92,12.23,10.17,1,20.85.06,31.06,0,5.15,0,5.16-8,0-8-8.58,0-17.15.11-25.73.13-3.65,0-8.45.78-9.24-3.7-.67-3.81,0-8.26,0-12.11l0-51.85c0-5.15-8-5.15-8,0Z"/><path d="M208.11,38c0-7.05-6.88-9.13-12.73-9.8-6.4-.73-15.38-2.12-21.33,1.3s-7.21,11.72-8.67,17.69A116.68,116.68,0,0,0,162,73.06c-.12,6.93.61,14.44,5.85,19.56,4.58,4.45,11.33,5.83,17.51,5.92A48,48,0,0,0,222.73,81c3.23-4-2.39-9.64-5.66-5.65A41,41,0,0,1,192.64,90a30.89,30.89,0,0,1-14.12-.35c-6-1.81-8.13-6.56-8.47-12.48-.63-11.07,1.35-22.58,4.49-33.17.68-2.27,1.35-6.15,3.55-7.53,1.86-1.18,5.24-.82,7.28-.81s14.75-.16,14.74,2.4c0,5.15,8,5.16,8,0Z"/><path d="M246.21,34.44c-15-3-20.88,13.79-21.94,25.6-1.14,12.71-1.55,28.21,13.1,32.88,12.7,4,27.66-1.21,37.65-9.24,10.16-8.16,18.92-22.46,12.46-35.4-7.86-15.72-26.92-16.63-42.23-16.12-5.13.17-5.15,8.17,0,8,11.95-.39,28.55-.95,35,11.53,6.3,12.16-7.75,25.59-17.64,30.54s-28.79,7.85-30.67-7a67.93,67.93,0,0,1,.82-19.2c.91-5.27,4.15-15.25,11.31-13.84,5,1,7.18-6.71,2.13-7.71Z"/><path d="M295.51,84.47l0-25.78c0-3.29-2-17.8,2.7-18.8l-4.52-1.84L314.93,79c1.64,3.16,6.35,2.18,7.31-1q5.52-18.24,12.35-36,3.42-8.85,7.17-17.56,1.89-4.38,3.87-8.71c.87-1.93,2.66-7.36,5.22-7.65l-4-4a477.86,477.86,0,0,0,10.29,81.51c1.08,5,8.79,2.9,7.71-2.13A465,465,0,0,1,354.85,4c-.08-2-1.78-4.26-4-4-6,.68-8.93,4.72-11.34,9.88-3.24,6.93-6.23,14-9.12,21.06q-9,22.07-15.87,44.9l7.31-1Q311.24,54.47,300.64,34a4.08,4.08,0,0,0-4.52-1.83c-7.62,1.61-8.53,10.14-8.56,16.59,0,11.9,0,23.8-.05,35.7,0,5.15,8,5.16,8,0Z"/><path d="M380,38.58c-7.6,10.73-15.31,21.9-19,34.7-2.95,10.33-4.27,25.06,6,31.84,9.5,6.26,22.75,3.62,32.75.12,12.92-4.52,24.35-12.18,35.56-19.85,4.22-2.89.22-9.83-4-6.91-8.81,6-17.72,12.1-27.46,16.55-8.64,3.94-21,8.37-30.35,4.49-10.62-4.39-6.31-20.68-3.21-28.81,3.89-10.18,10.34-19.26,16.6-28.09,3-4.21-3.95-8.21-6.91-4Z"/><path d="M372.6,45.19a75.83,75.83,0,0,0,38.77-5.88c4.72-2,.65-8.9-4-6.91a68.12,68.12,0,0,1-34.73,4.79c-5.1-.58-5.06,7.42,0,8Z"/><path d="M366.26,80.89l47.4-2.48c5.13-.27,5.16-8.27,0-8l-47.4,2.48c-5.12.27-5.15,8.27,0,8Z"/><path d="M444.28,35.37q35.6-5.19,71.4-8.61c5.08-.49,5.13-8.49,0-8q-36.87,3.54-73.52,8.89c-5.08.74-2.92,8.45,2.12,7.72Z"/><path d="M470.69,30.78v77.9c0,5.14,8,5.15,8,0V30.78c0-5.15-8-5.15-8,0Z"/><path d="M521.59,37.67A106.36,106.36,0,0,0,514.5,60c-1.25,6.55-3.24,15.32-1.55,21.9,1.6,6.23,9.35,8.74,14.93,9.86,7.15,1.43,14.51,1,21.72.19,6.65-.8,12.91-2.61,17.54-7.72,4-4.42,6.22-10.16,7.8-15.83,3.48-12.53,4.76-25.44-7.86-33-13.62-8.15-31.84-5-45.18,2-4.56,2.4-.52,9.31,4,6.91,11-5.78,27.24-9,38.2-1.3,6,4.23,6.08,10.28,4.61,17-1.21,5.53-2.51,11.34-5.53,16.2-3.85,6.2-10.15,7.5-17,8.12-6.7.61-13.66.88-20.13-1.27-1.84-.61-4.63-1.57-5.45-3.59-.52-1.26,0-3.72.1-5A91.36,91.36,0,0,1,522,63a98,98,0,0,1,6.46-21.31c2-4.68-4.87-8.75-6.91-4Z"/><path d="M14.56,202.36q-.35-21.45-.07-42.9c.09-7,.21-14,.42-21,.12-4.17-.2-12.27,4.58-14.24l-4.92-2.79a155.9,155.9,0,0,0,15.77,35.1,4,4,0,0,0,6.9,0c7.16-11.09,7.64-25.18,15.74-35.71l-7.31-1a607,607,0,0,1,22.49,84.47c1,5.06,8.68,2.92,7.72-2.12a607.18,607.18,0,0,0-22.49-84.48c-1.21-3.5-5.22-3.68-7.31-1-8.15,10.59-8.59,24.63-15.74,35.71h6.9a147,147,0,0,1-15-33.19c-.58-1.88-2.87-3.64-4.92-2.79-12.56,5.18-10.5,21.84-10.72,32.93q-.53,26.45-.09,52.88c.09,5.15,8.09,5.16,8,0Z"/><path d="M70.12,136.19c-1.05,7.87-1.76,16.47,2.82,23.46a20.82,20.82,0,0,0,16.37,9.21c17.33.59,25-17.62,29.19-31.33l-7.72-2.13c-2.14,14-3.12,29-8,42.32C98.33,189.67,87,201.88,73,197.66c-4.94-1.49-7,6.23-2.13,7.72,14.42,4.36,28.84-4.74,35.82-17.15,8.46-15,9.24-34,11.81-50.7.77-5-6.16-7.17-7.72-2.13-3,9.73-7.65,24.73-20.07,25.45-14.06.81-13.88-15-12.59-24.66.68-5.09-7.33-5-8,0Z"/><path d="M188.34,130c-6.81,1.2-13.71-1-20.55.09a17,17,0,0,0-13.07,9.68c-3.18,6.5-4.71,14.12-5.78,21.21-1.05,6.94-1.72,14.29.8,21,4.77,12.75,20.44,20.83,33.21,22.61s26.53-5.68,24.37-20c-.76-5.07-8.47-2.91-7.71,2.13.9,6-5.36,9.76-10.48,10.2-5.4.47-11.21-1.26-16.07-3.53-10.22-4.76-17.47-11.94-17-23.76a76.37,76.37,0,0,1,2.31-15.1c1.08-4.48,2.08-10.42,5.33-13.89s8.72-3,13.15-2.66a55.17,55.17,0,0,0,13.65-.25c5.07-.89,2.92-8.6-2.12-7.71Z"/><path d="M183.11,186.36h36.27c2.91,0,5.93.23,8.82,0,.86-.07,2.45.55,1.43-.52.58.6,0,4.2,0,5v18.9c0,5.15,8,5.16,8,0,0-7.62.18-15.26,0-22.88-.15-6.44-3.28-8.41-9.43-8.48-15-.18-30.06,0-45.09,0-5.14,0-5.15,8,0,8Z"/><path d="M241.22,153.94v50.53c0,5.14,8,5.15,8,0V153.94c0-5.15-8-5.16-8,0Z"/><path d="M263.12,162.05q19,.67,37.92-.43c5.12-.3,5.15-8.3,0-8q-18.94,1.11-37.92.43c-5.15-.18-5.14,7.82,0,8Z"/><path d="M277,160.26v52.63c0,5.14,8,5.15,8,0V160.26c0-5.15-8-5.16-8,0Z"/><path d="M320.17,135v69.48c0,5.14,8,5.15,8,0V135c0-5.15-8-5.15-8,0Z"/><path d="M326.28,178.88a276.19,276.19,0,0,0,34.76-.59c5.1-.4,5.14-8.41,0-8a276.19,276.19,0,0,1-34.76.59c-5.15-.23-5.14,7.77,0,8Z"/><path d="M357,144.47v57.89c0,5.15,8,5.16,8,0V144.47c0-5.15-8-5.16-8,0Z"/><path d="M383.35,155c0,12.88-.64,25.91-.06,38.77.43,9.38,7.52,16.22,16.73,10.7,8-4.76,13.39-14.38,16.2-22.93a49.71,49.71,0,0,0,.41-29.45c-1.44-4.93-9.16-2.83-7.71,2.13,4.06,13.86.8,29.48-9.2,40.09-2.7,2.87-7.07,6.61-8.35.83-.84-3.82-.09-8.65-.08-12.56l.06-27.58c0-5.15-8-5.16-8,0Z"/><path d="M426.66,132.89a632.71,632.71,0,0,0,1.93,77.89c.44,5.09,8.45,5.14,8,0a632.71,632.71,0,0,1-1.93-77.89c.19-5.14-7.81-5.14-8,0Z"/><path d="M430.18,186.31a155.43,155.43,0,0,1,31.07-7.15c5-.6,10-.92,15.05-1,2.51,0,5-.06,7.54,0,3.4.14,4.3,1.73,3.19,5-2.88,8.44-11,14.5-18.86,18-2.92,1.3-25.34,9.45-26.49,4.48s-8.89-2.89-7.72,2.13c2.88,12.35,22.26,5.86,29.93,3.46,12.37-3.86,24.43-11.28,29.88-23.54,2-4.59,3.2-10.56-.68-14.55-4.18-4.3-12.37-3.12-17.73-3a161.15,161.15,0,0,0-47.31,8.44c-4.85,1.63-2.77,9.36,2.13,7.71Z"/><path d="M510.69,127.62v64.21c0,5.15,8,5.16,8,0V127.62c0-5.14-8-5.15-8,0Z"/><path d="M510.78,210.81c.66,2.3-.58,5.37.13,8a6.86,6.86,0,0,0,7.86,5.05,8.14,8.14,0,0,0,6.36-6.21c.82-3.9-1.3-7.64-4.1-10.18-3.81-3.44-9.49,2.2-5.66,5.66a6.25,6.25,0,0,1,2,2.86c-.14-.39.33.62-.09,0-.21.15-.27.18-.17.09s.24-.14.43,0,.79.35,1,.45c0,0,.15.3.1.32s0-.89,0-1c0-.69.12-1.37.19-2.06a13.49,13.49,0,0,0-.32-5.14c-1.42-4.93-9.14-2.83-7.71,2.13Z"/><path d="M540.31,123.42q-1,32.64.61,65.27c.25,5.13,8.25,5.16,8,0q-1.57-32.61-.61-65.27c.15-5.15-7.85-5.15-8,0Z"/><path d="M546.39,207.51c-5.81.07-8.83,6.69-6.4,11.59,2.12,4.27,10.39,9.83,14.65,5.61,2-1.94,2.35-5.62,2.21-8.24a9.25,9.25,0,0,0-4.33-7.7c-5.52-3.14-12.87,3-9.14,8.83,2.78,4.31,9.71.3,6.91-4a1.7,1.7,0,0,1-.29,1.91,1.53,1.53,0,0,1-1.52.21s.29.3.27.37c-.1.46.11,1.44.07,1.93a12.16,12.16,0,0,1-.18,1.21c-.19.67-.14.68.17,0l1.76-1,.68.12-.87-.42c-.38-.2-.76-.4-1.13-.61a6,6,0,0,1-2-1.57c-.08-.12-.22-.53-.14-.4s-.09-.35.15-.35c-.17,0-.57.53-.86.54,5.14-.06,5.15-8.06,0-8Z"/></svg>