<svg xmlns="http://www.w3.org/2000/svg" width="900.14" height="91.91" viewBox="0 0 900.14 91.91"><path d="M-.26,92.17V.26H37.58V92.17ZM26.77,76V70.54h5.4v-27h-5.4v27H21.36V59.73H16V70.54H10.55v-27H5.14v27h5.41V76H16V70.54h5.4V76Z" transform="translate(0.26 -0.26)"/><path d="M36.9,92.17V.26H69.34V92.17ZM63.94,76V70.54H53.12V65.13H63.94V54.32H58.53v-5.4H47.72v5.4H42.31V70.54h5.41V76ZM47.72,65.13V54.32H58.53v5.41H53.12v5.4Z" transform="translate(0.26 -0.26)"/><path d="M68.67,92.17V.26h27V92.17ZM90.29,76V70.54h-5.4V38.1H74.07v5.41h5.41v27H74.07V76Z" transform="translate(0.26 -0.26)"/><path d="M95,92.17V.26h32.44V92.17ZM116.65,76V70.54h5.4V65.13h-5.4v5.41H105.83V54.32h10.82v-5.4H105.83v5.4h-5.4V70.54h5.4V76Z" transform="translate(0.26 -0.26)"/><path d="M126.78,92.17V.26h32.44V92.17ZM148.41,76V70.54h5.4V54.32h-5.4v-5.4H137.6v5.4h-5.41V70.54h5.41V76ZM137.6,70.54V54.32h10.81V70.54Z" transform="translate(0.26 -0.26)"/><path d="M158.55,92.17V.26H201.8V92.17ZM196.39,76V54.32H191v-5.4H164V76h5.41V54.32h8.11V76h5.4V54.32H191V76Z" transform="translate(0.26 -0.26)"/><path d="M201.12,92.17V.26h32.44V92.17Zm27-16.22V70.54H217.34V65.13h10.81V54.32h-5.41v-5.4H211.93v5.4h-5.4V70.54h5.4V76ZM211.93,65.13V54.32h10.81v5.41h-5.4v5.4Z" transform="translate(0.26 -0.26)"/><path d="M264.64,92.17V.26h32.44V92.17ZM286.27,76V70.54h5.4V65.13h-5.4v5.41H275.46V48.92h10.81V43.51H275.46V38.1h-5.41V70.54h5.41V76Z" transform="translate(0.26 -0.26)"/><path d="M296.4,92.17V.26h32.44V92.17ZM318,76V70.54h5.41V54.32H318v-5.4H307.22v5.4h-5.41V70.54h5.41V76Zm-10.81-5.41V54.32H318V70.54Z" transform="translate(0.26 -0.26)"/><path d="M359.93,92.17V.26h43.25V92.17ZM397.77,76V54.32h-5.4v-5.4h-27V76h5.41V54.32h8.11V76h5.41V54.32h8.11V76Z" transform="translate(0.26 -0.26)"/><path d="M402.5,92.17V.26h32.44V92.17Zm21.63-5.41V81.35h5.4V48.92h-5.4V70.54H413.31V48.92h-5.4V70.54h5.4V76h10.82v5.4H413.31v5.41Z" transform="translate(0.26 -0.26)"/><path d="M466,92.17V.26h32.43V92.17ZM487.65,76V70.54h5.41V59.73H482.24v5.4h5.41v5.41H476.84V48.92h10.81v5.4h5.41v-5.4h-5.41V43.51H476.84v5.41h-5.41V70.54h5.41V76Z" transform="translate(0.26 -0.26)"/><path d="M497.79,92.17V.26h27V92.17ZM519.41,76V70.54H514V48.92H503.19v5.4h5.41V70.54h-5.41V76ZM514,43.51V38.1H508.6v5.41Z" transform="translate(0.26 -0.26)"/><path d="M524.14,92.17V.26h32.44V92.17ZM545.77,76V70.54h5.4V65.13h-5.4v5.41H535V48.92h10.81V43.51H535V38.1h-5.41V70.54H535V76Z" transform="translate(0.26 -0.26)"/><path d="M555.9,92.17V.26h32.44V92.17Zm27-16.22V54.32h-5.41v-5.4H566.72V38.1h-5.41V76h5.41V54.32h10.81V76Z" transform="translate(0.26 -0.26)"/><path d="M587.67,92.17V.26H620.1V92.17ZM614.7,76v-27h-5.41V70.54H598.48V48.92h-5.41V70.54h5.41V76Z" transform="translate(0.26 -0.26)"/><path d="M619.43,92.17V.26h32.44V92.17ZM641.05,76V70.54h5.41V54.32h-5.41v-5.4H630.24V38.1h-5.41V70.54h5.41V76Zm-10.81-5.41V54.32h10.81V70.54Z" transform="translate(0.26 -0.26)"/><path d="M683,92.17V.26h32.44V92.17ZM693.76,76V65.13h10.82v-5.4H710V48.92h-5.4V43.51H688.36V76Zm0-16.22V48.92h10.82V59.73Z" transform="translate(0.26 -0.26)"/><path d="M714.71,92.17V.26h27V92.17ZM725.53,76V54.32h10.81v-5.4H725.53v5.4h-5.41V76Z" transform="translate(0.26 -0.26)"/><path d="M741.07,92.17V.26h32.44V92.17ZM762.69,76V70.54h5.41V54.32h-5.41v-5.4H751.88v5.4h-5.41V70.54h5.41V76Zm-10.81-5.41V54.32h10.81V70.54Z" transform="translate(0.26 -0.26)"/><path d="M772.83,92.17V.26h27V92.17Zm10.81-10.82V76h5.41V65.13h5.41v-5.4h-5.41V43.51h5.41V38.1h-5.41v5.41h-5.41V59.73h-5.4v5.4h5.4V76h-5.4v5.4Z" transform="translate(0.26 -0.26)"/><path d="M799.19,92.17V.26h27V92.17ZM820.81,76V70.54H815.4V48.92H804.59v5.4H810V70.54h-5.41V76ZM815.4,43.51V38.1H810v5.41Z" transform="translate(0.26 -0.26)"/><path d="M825.54,92.17V.26h27V92.17ZM847.17,76V70.54h-5.41V38.1H831v5.41h5.4v27H831V76Z" transform="translate(0.26 -0.26)"/><path d="M851.9,92.17V.26h32.43V92.17Zm27-16.22V70.54H868.12V65.13h10.81V54.32h-5.41v-5.4H862.71v5.4H857.3V70.54h5.41V76ZM862.71,65.13V54.32h10.81v5.41h-5.4v5.4Z" transform="translate(0.26 -0.26)"/><path d="M883.66,92.17V.26h16.22V92.17Zm10.81-27V43.51h-5.41V65.13Zm0,10.82V70.54h-5.41V76Z" transform="translate(0.26 -0.26)"/><rect x="327.26" width="34.89" height="91.91"/><rect x="433.26" width="34.89" height="91.91"/><rect x="232.26" width="34.89" height="91.91"/><rect x="650.26" width="34.89" height="91.91"/></svg>