<svg xmlns="http://www.w3.org/2000/svg" width="504.07" height="221.34" viewBox="0 0 504.07 221.34"><path d="M0,106.5V.25H43.75V106.5ZM31.25,87.75V81.5H37.5V50.25H31.25V81.5H25V69H18.75V81.5H12.5V50.25H6.25V81.5H12.5v6.25h6.25V81.5H25v6.25Z" transform="translate(0 -0.25)"/><path d="M43,106.5V.25h37.5V106.5ZM74.22,87.75V81.5H61.72V75.25h12.5V62.75H68V56.5H55.47v6.25H49.22V81.5h6.25v6.25ZM55.47,75.25V62.75H68V69H61.72v6.25Z" transform="translate(0 -0.25)"/><path d="M79.69,106.5V.25h31.25V106.5Zm25-18.75V81.5H98.44V44H85.94v6.25h6.25V81.5H85.94v6.25Z" transform="translate(0 -0.25)"/><path d="M110.16,106.5V.25h37.5V106.5Zm25-18.75V81.5h6.25V75.25h-6.25V81.5h-12.5V62.75h12.5V56.5h-12.5v6.25h-6.25V81.5h6.25v6.25Z" transform="translate(0 -0.25)"/><path d="M146.88,106.5V.25h37.5V106.5Zm25-18.75V81.5h6.24V62.75h-6.24V56.5h-12.5v6.25h-6.26V81.5h6.26v6.25Zm-12.5-6.25V62.75h12.5V81.5Z" transform="translate(0 -0.25)"/><path d="M183.59,106.5V.25h50V106.5Zm43.75-18.75v-25h-6.25V56.5H189.84V87.75h6.25v-25h9.38v25h6.25v-25h9.37v25Z" transform="translate(0 -0.25)"/><path d="M232.81,106.5V.25h37.5V106.5Zm31.25-18.75V81.5h-12.5V75.25h12.5V62.75h-6.25V56.5h-12.5v6.25h-6.25V81.5h6.25v6.25Zm-18.75-12.5V62.75h12.5V69h-6.25v6.25Z" transform="translate(0 -0.25)"/><path d="M306.25,106.5V.25h37.5V106.5Zm25-18.75V81.5h6.25V75.25h-6.25V81.5h-12.5v-25h12.5V50.25h-12.5V44H312.5V81.5h6.25v6.25Z" transform="translate(0 -0.25)"/><path d="M343,106.5V.25h37.5V106.5Zm25-18.75V81.5h6.25V62.75H368V56.5h-12.5v6.25h-6.25V81.5h6.25v6.25Zm-12.5-6.25V62.75H368V81.5Z" transform="translate(0 -0.25)"/><path d="M416.41,106.5V.25h50V106.5Zm43.75-18.75v-25h-6.25V56.5H422.66V87.75h6.25v-25h9.37v25h6.25v-25h9.38v25Z" transform="translate(0 -0.25)"/><path d="M465.62,106.5V.25h37.5V106.5Zm25-6.25V94h6.26V56.5h-6.26v25h-12.5v-25h-6.24v25h6.24v6.25h12.5V94h-12.5v6.25Z" transform="translate(0 -0.25)"/><path d="M0,221.59V114.81H37.69V221.59Zm25.12-18.84v-6.28h6.29V183.91H18.84v6.28h6.28v6.28H12.56V171.34H25.12v6.28h6.29v-6.28H25.12v-6.28H12.56v6.28H6.28v25.13h6.28v6.28Z" transform="translate(0 -0.25)"/><path d="M36.9,221.59V114.81H68.31V221.59ZM62,202.75v-6.28H55.75V171.34H43.18v6.28h6.28v18.85H43.18v6.28Zm-6.28-37.69v-6.28H49.46v6.28Z" transform="translate(0 -0.25)"/><path d="M67.52,221.59V114.81h37.69V221.59Zm25.13-18.84v-6.28h6.28v-6.28H92.65v6.28H80.09V171.34H92.65v-6.28H80.09v-6.28H73.8v37.69h6.29v6.28Z" transform="translate(0 -0.25)"/><path d="M104.43,221.59V114.81h37.68V221.59Zm31.4-18.84V177.62h-6.28v-6.28H117V158.78h-6.28v44H117V177.62h12.56v25.13Z" transform="translate(0 -0.25)"/><path d="M141.33,221.59V114.81H179V221.59Zm31.4-18.84V171.34h-6.28v25.13H153.89V171.34h-6.28v25.13h6.28v6.28Z" transform="translate(0 -0.25)"/><path d="M178.23,221.59V114.81h37.69V221.59Zm25.13-18.84v-6.28h6.28V177.62h-6.28v-6.28H190.79V158.78h-6.28v37.69h6.28v6.28Zm-12.57-6.28V177.62h12.57v18.85Z" transform="translate(0 -0.25)"/><path d="M252,221.59V114.81h37.68V221.59Zm12.56-18.84V190.19h12.56v-6.28h6.28V171.34h-6.28v-6.28H258.32v37.69Zm0-18.84V171.34h12.56v12.57Z" transform="translate(0 -0.25)"/><path d="M288.94,221.59V114.81h31.4V221.59Zm12.56-18.84V177.62h12.56v-6.28H301.5v6.28h-6.28v25.13Z" transform="translate(0 -0.25)"/><path d="M319.56,221.59V114.81h37.69V221.59Zm25.12-18.84v-6.28H351V177.62h-6.28v-6.28H332.12v6.28h-6.28v18.85h6.28v6.28Zm-12.56-6.28V177.62h12.56v18.85Z" transform="translate(0 -0.25)"/><path d="M356.46,221.59V114.81h31.41V221.59ZM369,209v-6.28h6.28V190.19h6.29v-6.28H375.3V165.06h6.29v-6.28H375.3v6.28H369v18.85h-6.28v6.28H369v12.56h-6.28V209Z" transform="translate(0 -0.25)"/><path d="M387.08,221.59V114.81h31.41V221.59Zm25.13-18.84v-6.28h-6.28V171.34H393.36v6.28h6.28v18.85h-6.28v6.28Zm-6.28-37.69v-6.28h-6.29v6.28Z" transform="translate(0 -0.25)"/><path d="M417.7,221.59V114.81h31.41V221.59Zm25.13-18.84v-6.28h-6.28V158.78H424v6.28h6.29v31.41H424v6.28Z" transform="translate(0 -0.25)"/><path d="M448.32,221.59V114.81H486V221.59Zm31.41-18.84v-6.28H467.17v-6.28h12.56V177.62h-6.28v-6.28H460.89v6.28h-6.28v18.85h6.28v6.28Zm-18.84-12.56V177.62h12.56v6.29h-6.28v6.28Z" transform="translate(0 -0.25)"/><path d="M485.23,221.59V114.81h18.84V221.59Zm12.56-31.4V165.06h-6.28v25.13Zm0,12.56v-6.28h-6.28v6.28Z" transform="translate(0 -0.25)"/></svg>